<svg xmlns="http://www.w3.org/2000/svg" version="1.1" viewBox="0 0 175 175">
<path fill="#ea7600" d="
  M 21.19 109.56
  Q 15.32 103.94 13.30 96.78
  Q 7.96 77.81 21.56 64.81
  Q 26.13 60.45 32.29 58.51
  Q 37.80 56.78 44.35 57.24
  Q 57.84 58.17 67.31 67.94
  Q 72.22 72.99 77.41 80.10
  Q 84.93 90.41 86.59 92.52
  Q 91.37 98.57 96.22 104.60
  C 96.56 105.03 96.50 105.64 96.09 105.99
  Q 90.63 110.67 83.98 114.51
  C 83.71 114.67 83.35 114.60 83.16 114.35
  Q 71.59 99.55 61.25 84.31
  Q 54.83 74.84 44.75 72.75
  Q 39.74 71.71 35.23 74.05
  Q 30.99 76.25 28.83 80.50
  Q 26.26 85.58 27.75 91.50
  Q 29.09 96.82 33.28 99.69
  Q 36.76 102.09 42.20 102.16
  Q 50.56 102.28 57.69 97.80
  C 58.18 97.49 58.84 97.65 59.15 98.16
  L 66.43 109.87
  C 66.63 110.19 66.54 110.62 66.22 110.81
  Q 53.28 118.71 38.52 117.53
  Q 28.67 116.73 21.19 109.56
  Z"
/>
<path fill="#ea7600" d="
  M 141.19 75.06
  Q 139.57 73.79 136.61 73.05
  Q 134.28 72.46 131.70 72.62
  Q 123.80 73.11 116.81 77.37
  C 116.48 77.57 116.05 77.47 115.85 77.15
  L 108.44 65.41
  C 108.12 64.91 108.29 64.23 108.81 63.92
  Q 118.73 57.97 129.49 57.16
  Q 143.30 56.13 152.46 64.28
  Q 158.70 69.83 161.43 78.12
  Q 164.26 86.70 161.91 95.29
  Q 159.15 105.38 151.21 111.80
  Q 142.03 119.22 129.00 117.75
  Q 115.41 116.22 105.44 105.06
  Q 100.13 99.12 92.14 87.70
  Q 89.58 84.04 85.15 78.87
  Q 81.48 74.58 78.28 69.91
  C 78.12 69.68 78.17 69.36 78.39 69.18
  Q 84.20 64.33 90.53 60.63
  C 90.95 60.39 91.48 60.49 91.77 60.88
  Q 100.63 72.71 109.49 84.47
  Q 110.20 85.41 111.60 87.83
  Q 112.28 88.98 113.09 90.04
  Q 114.10 91.34 114.68 92.16
  Q 120.34 100.17 129.49 101.82
  Q 135.64 102.93 140.21 100.42
  Q 145.60 97.46 147.00 90.75
  Q 148.99 81.22 141.19 75.06
  Z"
/>
</svg>