<?xml version="1.0" encoding="UTF-8" standalone="no"?>
<!DOCTYPE svg PUBLIC "-//W3C//DTD SVG 1.1//EN" "http://www.w3.org/Graphics/SVG/1.1/DTD/svg11.dtd">
<svg xmlns="http://www.w3.org/2000/svg" version="1.1" viewBox="0 0 291 111">
<path fill="#f47400" d="
  M 192.31 29.57
  L 192.07 51.57
  C 192.07 51.88 191.88 52.16 191.60 52.27
  Q 188.45 53.62 188.65 50.40
  Q 188.75 48.66 188.75 48.61
  Q 188.75 39.53 188.75 29.88
  C 188.75 29.41 188.40 29.02 187.96 29.00
  L 181.00 28.73
  C 180.63 28.72 180.31 28.59 180.15 28.39
  Q 179.38 27.45 179.85 26.26
  C 179.96 25.99 180.24 25.81 180.57 25.81
  L 199.94 25.80
  C 200.28 25.80 200.58 25.95 200.75 26.20
  Q 201.56 27.35 200.61 28.41
  C 200.44 28.59 200.12 28.71 199.75 28.72
  L 192.80 29.00
  C 192.53 29.01 192.32 29.26 192.31 29.57
  Z"
/>
<path fill="#0f171e" fill-opacity="0.996" d="
  M 202.17 52.56
  C 201.65 52.43 201.36 51.87 201.55 51.36
  Q 205.70 40.46 210.11 29.51
  Q 210.13 29.44 210.66 27.82
  Q 211.65 24.72 214.98 26.11
  C 215.27 26.22 215.50 26.47 215.63 26.78
  Q 220.20 38.04 224.52 49.40
  Q 224.55 49.49 225.03 50.58
  Q 226.33 53.61 222.66 52.47
  C 222.31 52.36 222.05 52.14 221.94 51.87
  L 219.72 46.14
  C 219.35 45.17 218.56 44.53 217.74 44.54
  L 208.19 44.65
  C 207.89 44.66 207.62 44.85 207.49 45.14
  Q 206.17 48.10 205.00 51.13
  Q 204.61 52.12 203.98 52.42
  Q 203.16 52.81 202.17 52.56
  Z
  M 212.69 30.67
  L 209.09 40.44
  C 208.90 40.95 209.28 41.50 209.83 41.50
  L 216.61 41.50
  C 217.22 41.50 217.64 40.90 217.44 40.33
  L 214.07 30.69
  Q 213.40 28.77 212.69 30.67
  Z"
/>
<path fill="#f47400" d="
  M 230.66 52.82
  Q 228.57 52.84 228.55 50.76
  Q 228.45 39.84 228.46 28.00
  Q 228.46 24.49 231.50 26.07
  C 231.77 26.21 231.94 26.50 231.94 26.82
  L 231.99 47.99
  C 232.00 48.93 232.75 49.69 233.68 49.70
  L 245.18 49.81
  C 245.53 49.81 245.83 49.96 245.99 50.21
  Q 246.64 51.23 245.99 52.29
  C 245.83 52.54 245.53 52.69 245.19 52.69
  L 230.66 52.82
  Z"
/>
<path fill="#0f171e" fill-opacity="0.996" d="
  M 268.45 52.42
  Q 267.30 52.54 266.44 51.31
  Q 262.30 45.46 258.02 39.63
  C 257.74 39.24 257.18 39.19 256.85 39.52
  L 253.33 43.13
  C 253.12 43.35 253.00 43.66 252.99 44.00
  Q 252.97 46.55 252.99 49.09
  Q 252.99 49.21 253.09 50.40
  Q 253.31 53.11 250.32 52.51
  C 249.84 52.42 249.50 52.00 249.50 51.52
  L 249.56 26.81
  C 249.56 26.50 249.73 26.22 249.99 26.08
  Q 253.35 24.39 253.19 28.51
  Q 253.00 33.13 253.00 37.37
  Q 253.00 39.42 254.43 37.95
  Q 259.98 32.23 265.79 26.79
  Q 266.72 25.91 267.58 25.76
  Q 268.66 25.57 269.75 25.92
  C 270.17 26.06 270.30 26.59 269.98 26.90
  L 260.54 36.08
  C 260.20 36.41 260.16 36.94 260.44 37.31
  Q 265.47 44.02 270.35 50.84
  Q 270.78 51.45 270.83 51.88
  Q 270.96 52.93 269.40 52.47
  Q 269.03 52.36 268.45 52.42
  Z"
/>
<path fill="#ea7600" d="
  M 32.31 66.69
  Q 34.20 68.60 37.41 69.85
  Q 40.10 70.89 43.21 70.78
  Q 51.30 70.48 58.90 66.23
  C 59.25 66.03 59.70 66.15 59.91 66.49
  L 67.37 78.37
  C 67.52 78.61 67.45 78.92 67.21 79.07
  Q 57.26 85.22 46.01 86.11
  Q 35.52 86.95 27.30 81.92
  Q 20.58 77.81 16.58 70.75
  Q 12.41 63.40 12.95 55.04
  Q 13.63 44.60 20.32 36.87
  Q 25.05 31.40 32.02 28.78
  Q 38.41 26.38 45.72 27.02
  Q 58.49 28.13 68.06 37.44
  Q 71.58 40.86 75.17 45.57
  Q 85.61 59.26 96.39 73.37
  C 96.57 73.60 96.53 73.92 96.30 74.10
  L 85.05 82.78
  C 84.75 83.01 84.31 82.95 84.08 82.64
  Q 71.80 66.14 59.48 50.75
  Q 53.84 43.69 45.46 42.47
  Q 39.97 41.67 35.82 43.88
  Q 32.62 45.58 30.59 48.68
  Q 28.71 51.55 28.31 55.15
  Q 27.56 61.87 32.31 66.69
  Z"
/>
<path fill="#ea7600" d="
  M 130.06 70.69
  Q 135.71 71.66 140.34 68.85
  Q 144.74 66.19 146.63 61.35
  Q 149.18 54.82 144.94 48.31
  Q 142.56 44.67 138.41 43.16
  Q 135.11 41.96 130.49 42.34
  Q 123.17 42.94 116.93 46.79
  C 116.54 47.03 116.02 46.91 115.78 46.53
  L 108.39 34.92
  C 108.12 34.49 108.26 33.93 108.69 33.67
  Q 115.01 29.98 121.66 28.25
  Q 128.62 26.44 135.45 27.02
  Q 149.93 28.25 157.56 39.88
  Q 162.60 47.55 162.77 56.08
  Q 162.90 62.22 160.48 67.95
  Q 158.25 73.23 153.71 77.61
  Q 142.61 88.33 127.41 85.68
  Q 119.33 84.27 112.37 79.44
  Q 106.39 75.30 101.95 69.33
  Q 99.39 65.91 99.35 65.86
  Q 89.35 53.04 79.31 39.56
  C 79.14 39.33 79.18 39.00 79.41 38.82
  L 90.48 30.36
  C 90.82 30.10 91.32 30.17 91.58 30.52
  Q 103.68 46.43 115.35 61.41
  Q 121.42 69.21 130.06 70.69
  Z"
/>
<path fill="#f47400" d="
  M 183.50 77.05
  Q 182.79 82.40 183.25 84.50
  Q 183.91 87.53 180.67 87.22
  C 180.15 87.17 179.76 86.74 179.76 86.23
  L 179.93 61.19
  C 179.93 60.91 180.15 60.68 180.44 60.66
  Q 184.48 60.41 188.52 60.47
  Q 188.60 60.47 191.46 60.36
  Q 195.64 60.20 197.94 63.06
  Q 200.81 66.65 199.38 70.91
  Q 198.40 73.84 196.01 75.19
  Q 193.56 76.58 190.25 76.25
  Q 187.48 75.97 184.05 76.49
  C 183.76 76.53 183.54 76.76 183.50 77.05
  Z
  M 192.26 63.78
  Q 188.29 62.87 184.17 63.44
  C 183.64 63.51 183.25 63.96 183.25 64.48
  L 183.30 72.44
  C 183.30 72.73 183.52 72.97 183.81 73.01
  Q 189.05 73.78 192.50 73.00
  Q 195.87 72.23 196.00 68.50
  Q 196.07 66.49 195.05 65.23
  Q 194.24 64.23 192.26 63.78
  Z"
/>
<path fill="#0f171e" fill-opacity="0.996" d="
  M 201.71 86.87
  C 201.45 86.76 201.32 86.47 201.42 86.20
  Q 205.97 74.44 210.53 62.90
  Q 211.24 61.12 212.15 60.63
  Q 213.35 60.00 214.87 60.71
  C 215.15 60.84 215.38 61.09 215.51 61.41
  L 225.32 86.28
  C 225.43 86.55 225.32 86.86 225.06 86.99
  Q 222.36 88.32 221.38 85.46
  Q 220.42 82.69 219.31 80.13
  C 219.09 79.61 218.59 79.28 218.06 79.29
  L 208.19 79.40
  C 207.89 79.41 207.61 79.59 207.47 79.88
  Q 206.10 82.63 205.08 85.53
  Q 204.63 86.82 203.92 87.07
  Q 203.02 87.40 201.71 86.87
  Z
  M 212.58 65.22
  L 209.06 75.08
  C 208.86 75.65 209.28 76.25 209.89 76.25
  L 216.48 76.25
  C 217.16 76.25 217.63 75.58 217.41 74.93
  L 213.99 65.23
  Q 213.29 63.24 212.58 65.22
  Z"
/>
<path fill="#f47400" d="
  M 233.13 84.20
  L 245.00 84.25
  C 245.35 84.26 245.66 84.39 245.83 84.61
  Q 246.56 85.56 246.15 86.72
  C 246.05 87.00 245.77 87.19 245.45 87.19
  L 229.81 87.25
  C 229.09 87.25 228.50 86.66 228.50 85.93
  Q 228.50 74.80 228.50 64.31
  Q 228.50 64.21 228.41 62.70
  Q 228.21 59.59 231.46 60.64
  C 231.75 60.74 231.94 61.01 231.94 61.32
  L 232.00 83.04
  C 232.00 83.68 232.50 84.19 233.13 84.20
  Z"
/>
</svg>
